<?xml version="1.0" encoding="utf-8"?>
<!-- Generator: Adobe Illustrator 23.0.3, SVG Export Plug-In . SVG Version: 6.00 Build 0)  -->
<svg version="1.1" id="Calque_1" xmlns="http://www.w3.org/2000/svg" xmlns:xlink="http://www.w3.org/1999/xlink" x="0px" y="0px"
	 viewBox="0 0 3000 3000" style="enable-background:new 0 0 3000 3000;" xml:space="preserve">
<style type="text/css">
	.st0{fill:#0E2E00;}
</style>
<g id="Calque_3">
	<path class="st0" d="M1701.6,1531.7c-0.6,62.8-32.8,125.1-84.5,161.3c-92.6,65-227.3,38.8-288.2-56.3
		c-14.3-22.2-24.1-47.3-28.3-73.4c-10.1-63.5,13.6-131.3,60.6-175.2c30.3-28.3,69.6-46.3,110.7-52.2
		c-93.6,16.2-193.4,123.8-120.9,250.8c92.7,93.4,136.1,23.6,146.7,22.3c10.8,1.3,55.4,71.1,150.6-22.3
		c80.2-136.7-44.9-251-146.1-252.9c12.7,0.1,25.5,1.3,38,3.8c40.6,8.1,78.7,28.9,107.3,58.9c28.6,30,47.5,69.2,52.7,110.3
		C1701.2,1515.1,1701.7,1523.4,1701.6,1531.7z"/>
</g>
</svg>
